<?xml version="1.0" encoding="UTF-8" standalone="no"?>
<!DOCTYPE svg PUBLIC "-//W3C//DTD SVG 1.1//EN"
 "http://www.w3.org/Graphics/SVG/1.1/DTD/svg11.dtd">
<!-- Generated by graphviz version 2.47.2 (20210527.0053)
 -->
<!-- Title: G Pages: 1 -->
<svg width="614pt" height="476pt"
 viewBox="0.00 0.00 613.79 476.00" xmlns="http://www.w3.org/2000/svg" xmlns:xlink="http://www.w3.org/1999/xlink">
<g id="graph0" class="graph" transform="scale(1 1) rotate(0) translate(4 472)">
<title>G</title>
<polygon fill="white" stroke="transparent" points="-4,4 -4,-472 609.79,-472 609.79,4 -4,4"/>
<!-- util -->
<g id="node1" class="node">
<title>util</title>
<ellipse fill="none" stroke="black" cx="266" cy="-450" rx="27" ry="18"/>
<text text-anchor="middle" x="266" y="-446.3" font-family="Times,serif" font-size="14.00">util</text>
</g>
<!-- alpha -->
<g id="node3" class="node">
<title>alpha</title>
<ellipse fill="none" stroke="black" cx="438" cy="-378" rx="29.8" ry="18"/>
<text text-anchor="middle" x="438" y="-374.3" font-family="Times,serif" font-size="14.00">alpha</text>
</g>
<!-- util&#45;&gt;alpha -->
<g id="edge1" class="edge">
<title>util&#45;&gt;alpha</title>
<path fill="none" stroke="black" d="M288.49,-439.85C317.99,-427.84 370.03,-406.66 404.27,-392.73"/>
<polygon fill="black" stroke="black" points="405.9,-395.84 413.85,-388.83 403.26,-389.36 405.9,-395.84"/>
</g>
<!-- link_check -->
<g id="node4" class="node">
<title>link_check</title>
<ellipse fill="none" stroke="black" cx="419" cy="-306" rx="49.29" ry="18"/>
<text text-anchor="middle" x="419" y="-302.3" font-family="Times,serif" font-size="14.00">link_check</text>
</g>
<!-- util&#45;&gt;link_check -->
<g id="edge19" class="edge">
<title>util&#45;&gt;link_check</title>
<path fill="none" stroke="black" d="M288.07,-439.28C307.42,-430.04 335.58,-414.78 356,-396 376,-377.61 393.37,-351.87 404.78,-332.8"/>
<polygon fill="black" stroke="black" points="407.88,-334.43 409.89,-324.03 401.83,-330.91 407.88,-334.43"/>
</g>
<!-- breakdown -->
<g id="node5" class="node">
<title>breakdown</title>
<ellipse fill="none" stroke="black" cx="419" cy="-234" rx="50.09" ry="18"/>
<text text-anchor="middle" x="419" y="-230.3" font-family="Times,serif" font-size="14.00">breakdown</text>
</g>
<!-- util&#45;&gt;breakdown -->
<g id="edge3" class="edge">
<title>util&#45;&gt;breakdown</title>
<path fill="none" stroke="black" d="M282.29,-435.53C293.52,-425.55 308.15,-411.12 318,-396 346.2,-352.71 331.63,-330.5 361,-288 368.89,-276.58 379.68,-265.86 389.81,-257.09"/>
<polygon fill="black" stroke="black" points="392.28,-259.59 397.73,-250.5 387.8,-254.21 392.28,-259.59"/>
</g>
<!-- vm -->
<g id="node7" class="node">
<title>vm</title>
<ellipse fill="none" stroke="black" cx="173" cy="-234" rx="27" ry="18"/>
<text text-anchor="middle" x="173" y="-230.3" font-family="Times,serif" font-size="14.00">vm</text>
</g>
<!-- util&#45;&gt;vm -->
<g id="edge27" class="edge">
<title>util&#45;&gt;vm</title>
<path fill="none" stroke="black" d="M249.1,-435.9C237.57,-426.1 222.85,-411.73 214,-396 189.85,-353.09 179.68,-295.82 175.58,-262.42"/>
<polygon fill="black" stroke="black" points="179.01,-261.61 174.41,-252.06 172.05,-262.39 179.01,-261.61"/>
</g>
<!-- debug_vm -->
<g id="node8" class="node">
<title>debug_vm</title>
<ellipse fill="none" stroke="black" cx="76" cy="-162" rx="48.19" ry="18"/>
<text text-anchor="middle" x="76" y="-158.3" font-family="Times,serif" font-size="14.00">debug_vm</text>
</g>
<!-- util&#45;&gt;debug_vm -->
<g id="edge8" class="edge">
<title>util&#45;&gt;debug_vm</title>
<path fill="none" stroke="black" d="M245.96,-437.56C230.54,-427.99 209.48,-413.16 195,-396 139.85,-330.65 101.46,-235.41 85,-189.58"/>
<polygon fill="black" stroke="black" points="88.27,-188.33 81.65,-180.06 81.67,-190.66 88.27,-188.33"/>
</g>
<!-- eval -->
<g id="node9" class="node">
<title>eval</title>
<ellipse fill="none" stroke="black" cx="261" cy="-90" rx="27" ry="18"/>
<text text-anchor="middle" x="261" y="-86.3" font-family="Times,serif" font-size="14.00">eval</text>
</g>
<!-- util&#45;&gt;eval -->
<g id="edge15" class="edge">
<title>util&#45;&gt;eval</title>
<path fill="none" stroke="black" d="M258.49,-432.34C247.42,-406.2 228,-353.7 228,-307 228,-307 228,-307 228,-233 228,-191.75 241.38,-145.47 251.1,-117.28"/>
<polygon fill="black" stroke="black" points="254.43,-118.35 254.48,-107.76 247.83,-116.01 254.43,-118.35"/>
</g>
<!-- dhl -->
<g id="node10" class="node">
<title>dhl</title>
<ellipse fill="none" stroke="black" cx="152" cy="-18" rx="27" ry="18"/>
<text text-anchor="middle" x="152" y="-14.3" font-family="Times,serif" font-size="14.00">dhl</text>
</g>
<!-- util&#45;&gt;dhl -->
<g id="edge10" class="edge">
<title>util&#45;&gt;dhl</title>
<path fill="none" stroke="black" d="M239.03,-447.16C171.41,-440.94 0,-414.58 0,-307 0,-307 0,-307 0,-161 0,-95.9 75.37,-52.07 119.97,-31.84"/>
<polygon fill="black" stroke="black" points="121.49,-34.99 129.24,-27.76 118.68,-28.58 121.49,-34.99"/>
</g>
<!-- pushout -->
<g id="node11" class="node">
<title>pushout</title>
<ellipse fill="none" stroke="black" cx="294" cy="-162" rx="38.19" ry="18"/>
<text text-anchor="middle" x="294" y="-158.3" font-family="Times,serif" font-size="14.00">pushout</text>
</g>
<!-- util&#45;&gt;pushout -->
<g id="edge25" class="edge">
<title>util&#45;&gt;pushout</title>
<path fill="none" stroke="black" d="M267.67,-431.97C272.34,-384.19 285.62,-248.62 291.33,-190.27"/>
<polygon fill="black" stroke="black" points="294.81,-190.6 292.31,-180.31 287.85,-189.92 294.81,-190.6"/>
</g>
<!-- match -->
<g id="node12" class="node">
<title>match</title>
<ellipse fill="none" stroke="black" cx="383" cy="-162" rx="32.49" ry="18"/>
<text text-anchor="middle" x="383" y="-158.3" font-family="Times,serif" font-size="14.00">match</text>
</g>
<!-- util&#45;&gt;match -->
<g id="edge22" class="edge">
<title>util&#45;&gt;match</title>
<path fill="none" stroke="black" d="M272.69,-432.24C291.13,-386.12 342.44,-257.95 360,-216 363.71,-207.13 367.87,-197.46 371.62,-188.85"/>
<polygon fill="black" stroke="black" points="374.84,-190.23 375.64,-179.66 368.43,-187.42 374.84,-190.23"/>
</g>
<!-- syntax -->
<g id="node2" class="node">
<title>syntax</title>
<ellipse fill="none" stroke="black" cx="492" cy="-450" rx="33.6" ry="18"/>
<text text-anchor="middle" x="492" y="-446.3" font-family="Times,serif" font-size="14.00">syntax</text>
</g>
<!-- syntax&#45;&gt;alpha -->
<g id="edge2" class="edge">
<title>syntax&#45;&gt;alpha</title>
<path fill="none" stroke="black" d="M479.75,-433.12C472.84,-424.17 464.08,-412.81 456.37,-402.81"/>
<polygon fill="black" stroke="black" points="459.08,-400.6 450.2,-394.82 453.54,-404.88 459.08,-400.6"/>
</g>
<!-- debug_syntax -->
<g id="node6" class="node">
<title>debug_syntax</title>
<ellipse fill="none" stroke="black" cx="546" cy="-378" rx="59.59" ry="18"/>
<text text-anchor="middle" x="546" y="-374.3" font-family="Times,serif" font-size="14.00">debug_syntax</text>
</g>
<!-- syntax&#45;&gt;debug_syntax -->
<g id="edge6" class="edge">
<title>syntax&#45;&gt;debug_syntax</title>
<path fill="none" stroke="black" d="M504.25,-433.12C510.9,-424.51 519.26,-413.67 526.75,-403.96"/>
<polygon fill="black" stroke="black" points="529.71,-405.85 533.04,-395.8 524.16,-401.58 529.71,-405.85"/>
</g>
<!-- alpha&#45;&gt;link_check -->
<g id="edge20" class="edge">
<title>alpha&#45;&gt;link_check</title>
<path fill="none" stroke="black" d="M433.4,-360.05C431.29,-352.26 428.72,-342.82 426.35,-334.08"/>
<polygon fill="black" stroke="black" points="429.69,-333.01 423.69,-324.28 422.93,-334.84 429.69,-333.01"/>
</g>
<!-- alpha&#45;&gt;breakdown -->
<g id="edge5" class="edge">
<title>alpha&#45;&gt;breakdown</title>
<path fill="none" stroke="black" d="M452.88,-362.27C461.76,-352.38 472.23,-338.54 477,-324 481.99,-308.8 483.45,-302.64 477,-288 471.53,-275.59 461.56,-264.83 451.41,-256.3"/>
<polygon fill="black" stroke="black" points="453.35,-253.37 443.32,-249.95 449.03,-258.88 453.35,-253.37"/>
</g>
<!-- link_check&#45;&gt;breakdown -->
<g id="edge4" class="edge">
<title>link_check&#45;&gt;breakdown</title>
<path fill="none" stroke="black" d="M419,-287.7C419,-279.98 419,-270.71 419,-262.11"/>
<polygon fill="black" stroke="black" points="422.5,-262.1 419,-252.1 415.5,-262.1 422.5,-262.1"/>
</g>
<!-- breakdown&#45;&gt;eval -->
<g id="edge18" class="edge">
<title>breakdown&#45;&gt;eval</title>
<path fill="none" stroke="black" d="M425.78,-216.14C432.35,-196.79 439.28,-165.04 424,-144 395.47,-104.72 337.09,-93.98 298.51,-91.36"/>
<polygon fill="black" stroke="black" points="298.36,-87.84 288.19,-90.82 297.99,-94.83 298.36,-87.84"/>
</g>
<!-- breakdown&#45;&gt;dhl -->
<g id="edge13" class="edge">
<title>breakdown&#45;&gt;dhl</title>
<path fill="none" stroke="black" d="M430.8,-216.44C442.6,-197.65 457.11,-166.7 443,-144 387.85,-55.32 254.36,-29.42 189.13,-21.96"/>
<polygon fill="black" stroke="black" points="189.21,-18.45 178.89,-20.88 188.47,-25.41 189.21,-18.45"/>
</g>
<!-- breakdown&#45;&gt;pushout -->
<g id="edge26" class="edge">
<title>breakdown&#45;&gt;pushout</title>
<path fill="none" stroke="black" d="M393.1,-218.5C373.79,-207.68 347.28,-192.84 326.54,-181.22"/>
<polygon fill="black" stroke="black" points="328.19,-178.13 317.75,-176.3 324.77,-184.24 328.19,-178.13"/>
</g>
<!-- breakdown&#45;&gt;match -->
<g id="edge23" class="edge">
<title>breakdown&#45;&gt;match</title>
<path fill="none" stroke="black" d="M410.29,-216.05C406.08,-207.89 400.95,-197.91 396.28,-188.82"/>
<polygon fill="black" stroke="black" points="399.32,-187.08 391.63,-179.79 393.1,-190.28 399.32,-187.08"/>
</g>
<!-- vm&#45;&gt;debug_vm -->
<g id="edge7" class="edge">
<title>vm&#45;&gt;debug_vm</title>
<path fill="none" stroke="black" d="M155.21,-220.16C141.24,-210.08 121.49,-195.83 105.2,-184.08"/>
<polygon fill="black" stroke="black" points="107.21,-181.21 97.06,-178.19 103.12,-186.88 107.21,-181.21"/>
</g>
<!-- vm&#45;&gt;eval -->
<g id="edge14" class="edge">
<title>vm&#45;&gt;eval</title>
<path fill="none" stroke="black" d="M179.04,-216.17C186.06,-197.68 198.65,-167.5 214,-144 221.18,-133.01 230.54,-121.97 239.02,-112.83"/>
<polygon fill="black" stroke="black" points="241.79,-115 246.16,-105.34 236.73,-110.16 241.79,-115"/>
</g>
<!-- vm&#45;&gt;dhl -->
<g id="edge9" class="edge">
<title>vm&#45;&gt;dhl</title>
<path fill="none" stroke="black" d="M171.32,-215.85C167.68,-178.83 159.08,-91.18 154.69,-46.39"/>
<polygon fill="black" stroke="black" points="158.15,-45.84 153.69,-36.23 151.18,-46.53 158.15,-45.84"/>
</g>
<!-- vm&#45;&gt;pushout -->
<g id="edge24" class="edge">
<title>vm&#45;&gt;pushout</title>
<path fill="none" stroke="black" d="M192.71,-221.6C211.43,-210.77 239.89,-194.3 261.89,-181.58"/>
<polygon fill="black" stroke="black" points="263.66,-184.59 270.57,-176.56 260.16,-178.54 263.66,-184.59"/>
</g>
<!-- vm&#45;&gt;match -->
<g id="edge21" class="edge">
<title>vm&#45;&gt;match</title>
<path fill="none" stroke="black" d="M197.41,-225.96C230.28,-216.33 290.49,-198.16 341,-180 343.4,-179.14 345.86,-178.22 348.33,-177.28"/>
<polygon fill="black" stroke="black" points="349.77,-180.48 357.81,-173.57 347.22,-173.96 349.77,-180.48"/>
</g>
<!-- debug_vm&#45;&gt;dhl -->
<g id="edge12" class="edge">
<title>debug_vm&#45;&gt;dhl</title>
<path fill="none" stroke="black" d="M85.02,-144.15C98.23,-119.47 122.95,-73.28 138.38,-44.44"/>
<polygon fill="black" stroke="black" points="141.6,-45.85 143.23,-35.39 135.43,-42.55 141.6,-45.85"/>
</g>
<!-- eval&#45;&gt;dhl -->
<g id="edge11" class="edge">
<title>eval&#45;&gt;dhl</title>
<path fill="none" stroke="black" d="M242.01,-76.81C224.66,-65.67 198.81,-49.06 179.26,-36.5"/>
<polygon fill="black" stroke="black" points="181.07,-33.51 170.77,-31.05 177.29,-39.4 181.07,-33.51"/>
</g>
<!-- pushout&#45;&gt;eval -->
<g id="edge16" class="edge">
<title>pushout&#45;&gt;eval</title>
<path fill="none" stroke="black" d="M286.01,-144.05C282.1,-135.77 277.32,-125.62 272.99,-116.42"/>
<polygon fill="black" stroke="black" points="276.12,-114.86 268.69,-107.31 269.79,-117.84 276.12,-114.86"/>
</g>
<!-- match&#45;&gt;eval -->
<g id="edge17" class="edge">
<title>match&#45;&gt;eval</title>
<path fill="none" stroke="black" d="M361.19,-148.49C341.28,-137.06 311.71,-120.1 289.85,-107.55"/>
<polygon fill="black" stroke="black" points="291.42,-104.42 281,-102.48 287.94,-110.49 291.42,-104.42"/>
</g>
</g>
</svg>
