<?xml version="1.0" encoding="UTF-8" standalone="no"?>
<!DOCTYPE svg PUBLIC "-//W3C//DTD SVG 1.1//EN"
 "http://www.w3.org/Graphics/SVG/1.1/DTD/svg11.dtd">
<!-- Generated by graphviz version 2.47.2 (20210527.0053)
 -->
<!-- Title: G Pages: 1 -->
<svg width="808pt" height="476pt"
 viewBox="0.00 0.00 807.79 476.00" xmlns="http://www.w3.org/2000/svg" xmlns:xlink="http://www.w3.org/1999/xlink">
<g id="graph0" class="graph" transform="scale(1 1) rotate(0) translate(4 472)">
<title>G</title>
<polygon fill="white" stroke="transparent" points="-4,4 -4,-472 803.79,-472 803.79,4 -4,4"/>
<!-- util -->
<g id="node1" class="node">
<title>util</title>
<ellipse fill="none" stroke="black" cx="422" cy="-450" rx="27" ry="18"/>
<text text-anchor="middle" x="422" y="-446.3" font-family="Times,serif" font-size="14.00">util</text>
</g>
<!-- alpha -->
<g id="node3" class="node">
<title>alpha</title>
<ellipse fill="none" stroke="black" cx="632" cy="-378" rx="29.8" ry="18"/>
<text text-anchor="middle" x="632" y="-374.3" font-family="Times,serif" font-size="14.00">alpha</text>
</g>
<!-- util&#45;&gt;alpha -->
<g id="edge1" class="edge">
<title>util&#45;&gt;alpha</title>
<path fill="none" stroke="black" d="M446.07,-441.81C478.49,-432.01 537.93,-413.65 588,-396 591.27,-394.85 594.65,-393.61 598.03,-392.36"/>
<polygon fill="black" stroke="black" points="599.32,-395.61 607.43,-388.79 596.84,-389.07 599.32,-395.61"/>
</g>
<!-- link_check -->
<g id="node4" class="node">
<title>link_check</title>
<ellipse fill="none" stroke="black" cx="613" cy="-306" rx="49.29" ry="18"/>
<text text-anchor="middle" x="613" y="-302.3" font-family="Times,serif" font-size="14.00">link_check</text>
</g>
<!-- util&#45;&gt;link_check -->
<g id="edge16" class="edge">
<title>util&#45;&gt;link_check</title>
<path fill="none" stroke="black" d="M447.27,-443.06C474.78,-435.62 518.98,-420.76 550,-396 571.49,-378.85 588.87,-352.51 599.89,-332.93"/>
<polygon fill="black" stroke="black" points="603.08,-334.39 604.78,-323.93 596.93,-331.05 603.08,-334.39"/>
</g>
<!-- breakdown -->
<g id="node5" class="node">
<title>breakdown</title>
<ellipse fill="none" stroke="black" cx="610" cy="-234" rx="50.09" ry="18"/>
<text text-anchor="middle" x="610" y="-230.3" font-family="Times,serif" font-size="14.00">breakdown</text>
</g>
<!-- util&#45;&gt;breakdown -->
<g id="edge3" class="edge">
<title>util&#45;&gt;breakdown</title>
<path fill="none" stroke="black" d="M445.21,-440.39C465.32,-431.88 493.94,-417.06 512,-396 545.63,-356.78 526.2,-330.89 555,-288 562.53,-276.79 572.76,-266.12 582.36,-257.33"/>
<polygon fill="black" stroke="black" points="584.68,-259.95 589.86,-250.7 580.05,-254.7 584.68,-259.95"/>
</g>
<!-- vm -->
<g id="node7" class="node">
<title>vm</title>
<ellipse fill="none" stroke="black" cx="281" cy="-306" rx="27" ry="18"/>
<text text-anchor="middle" x="281" y="-302.3" font-family="Times,serif" font-size="14.00">vm</text>
</g>
<!-- util&#45;&gt;vm -->
<g id="edge33" class="edge">
<title>util&#45;&gt;vm</title>
<path fill="none" stroke="black" d="M399.49,-439.75C379.84,-430.81 351.5,-415.73 332,-396 314.09,-377.88 300.27,-352.22 291.56,-333.1"/>
<polygon fill="black" stroke="black" points="294.7,-331.53 287.48,-323.78 288.29,-334.34 294.7,-331.53"/>
</g>
<!-- debug_vm -->
<g id="node8" class="node">
<title>debug_vm</title>
<ellipse fill="none" stroke="black" cx="76" cy="-234" rx="48.19" ry="18"/>
<text text-anchor="middle" x="76" y="-230.3" font-family="Times,serif" font-size="14.00">debug_vm</text>
</g>
<!-- util&#45;&gt;debug_vm -->
<g id="edge8" class="edge">
<title>util&#45;&gt;debug_vm</title>
<path fill="none" stroke="black" d="M396.27,-443.95C363.17,-436.72 304.62,-421.4 260,-396 193.75,-358.29 129.89,-294.25 97.68,-259.38"/>
<polygon fill="black" stroke="black" points="99.89,-256.61 90.56,-251.59 94.72,-261.33 99.89,-256.61"/>
</g>
<!-- dump -->
<g id="node9" class="node">
<title>dump</title>
<ellipse fill="none" stroke="black" cx="173" cy="-234" rx="31.4" ry="18"/>
<text text-anchor="middle" x="173" y="-230.3" font-family="Times,serif" font-size="14.00">dump</text>
</g>
<!-- util&#45;&gt;dump -->
<g id="edge10" class="edge">
<title>util&#45;&gt;dump</title>
<path fill="none" stroke="black" d="M397.65,-442.06C372.03,-433.93 331.43,-418.63 302,-396 251.44,-357.11 208.8,-294.42 187.52,-259.86"/>
<polygon fill="black" stroke="black" points="190.52,-258.04 182.34,-251.3 184.53,-261.67 190.52,-258.04"/>
</g>
<!-- pushout -->
<g id="node10" class="node">
<title>pushout</title>
<ellipse fill="none" stroke="black" cx="412" cy="-162" rx="38.19" ry="18"/>
<text text-anchor="middle" x="412" y="-158.3" font-family="Times,serif" font-size="14.00">pushout</text>
</g>
<!-- util&#45;&gt;pushout -->
<g id="edge29" class="edge">
<title>util&#45;&gt;pushout</title>
<path fill="none" stroke="black" d="M421.4,-431.97C419.74,-384.29 415.01,-249.18 412.97,-190.63"/>
<polygon fill="black" stroke="black" points="416.45,-190.18 412.61,-180.31 409.46,-190.42 416.45,-190.18"/>
</g>
<!-- match -->
<g id="node11" class="node">
<title>match</title>
<ellipse fill="none" stroke="black" cx="501" cy="-162" rx="32.49" ry="18"/>
<text text-anchor="middle" x="501" y="-158.3" font-family="Times,serif" font-size="14.00">match</text>
</g>
<!-- util&#45;&gt;match -->
<g id="edge25" class="edge">
<title>util&#45;&gt;match</title>
<path fill="none" stroke="black" d="M432.5,-433.31C453.31,-401.07 498.99,-324.31 513,-252 517.04,-231.14 513.38,-207.28 509.07,-189.51"/>
<polygon fill="black" stroke="black" points="512.45,-188.6 506.51,-179.82 505.68,-190.39 512.45,-188.6"/>
</g>
<!-- eval -->
<g id="node12" class="node">
<title>eval</title>
<ellipse fill="none" stroke="black" cx="379" cy="-90" rx="27" ry="18"/>
<text text-anchor="middle" x="379" y="-86.3" font-family="Times,serif" font-size="14.00">eval</text>
</g>
<!-- util&#45;&gt;eval -->
<g id="edge12" class="edge">
<title>util&#45;&gt;eval</title>
<path fill="none" stroke="black" d="M407.7,-434.23C385.69,-409.85 346,-358.73 346,-307 346,-307 346,-307 346,-233 346,-191.75 359.38,-145.47 369.1,-117.28"/>
<polygon fill="black" stroke="black" points="372.43,-118.35 372.48,-107.76 365.83,-116.01 372.43,-118.35"/>
</g>
<!-- main -->
<g id="node13" class="node">
<title>main</title>
<ellipse fill="none" stroke="black" cx="212" cy="-18" rx="28.7" ry="18"/>
<text text-anchor="middle" x="212" y="-14.3" font-family="Times,serif" font-size="14.00">main</text>
</g>
<!-- util&#45;&gt;main -->
<g id="edge19" class="edge">
<title>util&#45;&gt;main</title>
<path fill="none" stroke="black" d="M395.6,-445.96C303.22,-434.58 0,-390.87 0,-307 0,-307 0,-307 0,-161 0,-77.88 113.9,-40.32 174.73,-26.19"/>
<polygon fill="black" stroke="black" points="175.72,-29.55 184.72,-23.96 174.2,-22.72 175.72,-29.55"/>
</g>
<!-- redir -->
<g id="node14" class="node">
<title>redir</title>
<ellipse fill="none" stroke="black" cx="477" cy="-234" rx="27.1" ry="18"/>
<text text-anchor="middle" x="477" y="-230.3" font-family="Times,serif" font-size="14.00">redir</text>
</g>
<!-- util&#45;&gt;redir -->
<g id="edge32" class="edge">
<title>util&#45;&gt;redir</title>
<path fill="none" stroke="black" d="M426.58,-431.82C429.33,-421.46 432.89,-407.98 436,-396 448.23,-348.84 462.17,-293.83 470.24,-261.85"/>
<polygon fill="black" stroke="black" points="473.69,-262.49 472.74,-251.93 466.9,-260.77 473.69,-262.49"/>
</g>
<!-- syntax -->
<g id="node2" class="node">
<title>syntax</title>
<ellipse fill="none" stroke="black" cx="686" cy="-450" rx="33.6" ry="18"/>
<text text-anchor="middle" x="686" y="-446.3" font-family="Times,serif" font-size="14.00">syntax</text>
</g>
<!-- syntax&#45;&gt;alpha -->
<g id="edge2" class="edge">
<title>syntax&#45;&gt;alpha</title>
<path fill="none" stroke="black" d="M673.75,-433.12C666.84,-424.17 658.08,-412.81 650.37,-402.81"/>
<polygon fill="black" stroke="black" points="653.08,-400.6 644.2,-394.82 647.54,-404.88 653.08,-400.6"/>
</g>
<!-- debug_syntax -->
<g id="node6" class="node">
<title>debug_syntax</title>
<ellipse fill="none" stroke="black" cx="740" cy="-378" rx="59.59" ry="18"/>
<text text-anchor="middle" x="740" y="-374.3" font-family="Times,serif" font-size="14.00">debug_syntax</text>
</g>
<!-- syntax&#45;&gt;debug_syntax -->
<g id="edge6" class="edge">
<title>syntax&#45;&gt;debug_syntax</title>
<path fill="none" stroke="black" d="M698.25,-433.12C704.9,-424.51 713.26,-413.67 720.75,-403.96"/>
<polygon fill="black" stroke="black" points="723.71,-405.85 727.04,-395.8 718.16,-401.58 723.71,-405.85"/>
</g>
<!-- alpha&#45;&gt;link_check -->
<g id="edge17" class="edge">
<title>alpha&#45;&gt;link_check</title>
<path fill="none" stroke="black" d="M627.4,-360.05C625.29,-352.26 622.72,-342.82 620.35,-334.08"/>
<polygon fill="black" stroke="black" points="623.69,-333.01 617.69,-324.28 616.93,-334.84 623.69,-333.01"/>
</g>
<!-- alpha&#45;&gt;breakdown -->
<g id="edge5" class="edge">
<title>alpha&#45;&gt;breakdown</title>
<path fill="none" stroke="black" d="M646.88,-362.27C655.76,-352.38 666.23,-338.54 671,-324 675.99,-308.8 677.64,-302.56 671,-288 665.16,-275.18 654.51,-264.27 643.73,-255.73"/>
<polygon fill="black" stroke="black" points="645.66,-252.81 635.54,-249.68 641.5,-258.44 645.66,-252.81"/>
</g>
<!-- link_check&#45;&gt;breakdown -->
<g id="edge4" class="edge">
<title>link_check&#45;&gt;breakdown</title>
<path fill="none" stroke="black" d="M612.26,-287.7C611.93,-279.98 611.53,-270.71 611.16,-262.11"/>
<polygon fill="black" stroke="black" points="614.66,-261.95 610.73,-252.1 607.66,-262.25 614.66,-261.95"/>
</g>
<!-- breakdown&#45;&gt;pushout -->
<g id="edge30" class="edge">
<title>breakdown&#45;&gt;pushout</title>
<path fill="none" stroke="black" d="M575.44,-220.8C545.04,-210.06 499.58,-194 460,-180 457.13,-178.99 454.17,-177.94 451.19,-176.88"/>
<polygon fill="black" stroke="black" points="452.3,-173.56 441.7,-173.52 449.96,-180.16 452.3,-173.56"/>
</g>
<!-- breakdown&#45;&gt;match -->
<g id="edge27" class="edge">
<title>breakdown&#45;&gt;match</title>
<path fill="none" stroke="black" d="M586.62,-217.98C570.1,-207.38 547.86,-193.09 530.18,-181.74"/>
<polygon fill="black" stroke="black" points="531.71,-178.57 521.41,-176.11 527.93,-184.46 531.71,-178.57"/>
</g>
<!-- breakdown&#45;&gt;eval -->
<g id="edge15" class="edge">
<title>breakdown&#45;&gt;eval</title>
<path fill="none" stroke="black" d="M601.27,-216.09C590.11,-196.09 568.97,-163.11 542,-144 503.6,-116.8 450.44,-102.98 415.41,-96.39"/>
<polygon fill="black" stroke="black" points="415.62,-92.87 405.16,-94.57 414.39,-99.76 415.62,-92.87"/>
</g>
<!-- breakdown&#45;&gt;main -->
<g id="edge23" class="edge">
<title>breakdown&#45;&gt;main</title>
<path fill="none" stroke="black" d="M607.04,-215.84C602.84,-196.22 593.39,-164.2 574,-144 485.02,-51.31 324.1,-27.33 250.55,-21.14"/>
<polygon fill="black" stroke="black" points="250.59,-17.64 240.35,-20.35 250.05,-24.61 250.59,-17.64"/>
</g>
<!-- vm&#45;&gt;debug_vm -->
<g id="edge7" class="edge">
<title>vm&#45;&gt;debug_vm</title>
<path fill="none" stroke="black" d="M257.48,-296.97C224.09,-285.57 162.31,-264.47 120.2,-250.09"/>
<polygon fill="black" stroke="black" points="121.07,-246.69 110.47,-246.77 118.81,-253.32 121.07,-246.69"/>
</g>
<!-- vm&#45;&gt;dump -->
<g id="edge9" class="edge">
<title>vm&#45;&gt;dump</title>
<path fill="none" stroke="black" d="M262.19,-292.81C245.49,-281.99 220.85,-266.01 201.69,-253.6"/>
<polygon fill="black" stroke="black" points="203.36,-250.5 193.06,-248 199.55,-256.38 203.36,-250.5"/>
</g>
<!-- vm&#45;&gt;pushout -->
<g id="edge28" class="edge">
<title>vm&#45;&gt;pushout</title>
<path fill="none" stroke="black" d="M294.53,-290.34C317.21,-265.75 363.1,-216 390.33,-186.49"/>
<polygon fill="black" stroke="black" points="392.94,-188.82 397.15,-179.1 387.8,-184.07 392.94,-188.82"/>
</g>
<!-- vm&#45;&gt;match -->
<g id="edge24" class="edge">
<title>vm&#45;&gt;match</title>
<path fill="none" stroke="black" d="M299.76,-292.89C338.24,-268.06 426.33,-211.2 472.14,-181.63"/>
<polygon fill="black" stroke="black" points="474.2,-184.46 480.71,-176.1 470.41,-178.58 474.2,-184.46"/>
</g>
<!-- vm&#45;&gt;eval -->
<g id="edge11" class="edge">
<title>vm&#45;&gt;eval</title>
<path fill="none" stroke="black" d="M283.94,-288.08C289.73,-257.67 304.51,-192.45 332,-144 338.54,-132.47 347.91,-121.25 356.56,-112.12"/>
<polygon fill="black" stroke="black" points="359.06,-114.57 363.59,-104.99 354.08,-109.66 359.06,-114.57"/>
</g>
<!-- vm&#45;&gt;main -->
<g id="edge18" class="edge">
<title>vm&#45;&gt;main</title>
<path fill="none" stroke="black" d="M276.89,-287.97C265.34,-240.08 232.5,-103.98 218.48,-45.85"/>
<polygon fill="black" stroke="black" points="221.84,-44.85 216.09,-35.94 215.03,-46.49 221.84,-44.85"/>
</g>
<!-- vm&#45;&gt;redir -->
<g id="edge31" class="edge">
<title>vm&#45;&gt;redir</title>
<path fill="none" stroke="black" d="M304.25,-296.7C338.93,-284.31 404.37,-260.94 443.99,-246.79"/>
<polygon fill="black" stroke="black" points="445.23,-250.06 453.47,-243.4 442.88,-243.47 445.23,-250.06"/>
</g>
<!-- debug_vm&#45;&gt;main -->
<g id="edge22" class="edge">
<title>debug_vm&#45;&gt;main</title>
<path fill="none" stroke="black" d="M86.67,-216.21C110.52,-178.68 168.25,-87.84 196.25,-43.78"/>
<polygon fill="black" stroke="black" points="199.34,-45.45 201.75,-35.13 193.43,-41.69 199.34,-45.45"/>
</g>
<!-- dump&#45;&gt;main -->
<g id="edge21" class="edge">
<title>dump&#45;&gt;main</title>
<path fill="none" stroke="black" d="M176.13,-215.85C182.89,-178.74 198.92,-90.75 207.07,-46.05"/>
<polygon fill="black" stroke="black" points="210.56,-46.4 208.91,-35.94 203.68,-45.15 210.56,-46.4"/>
</g>
<!-- pushout&#45;&gt;eval -->
<g id="edge13" class="edge">
<title>pushout&#45;&gt;eval</title>
<path fill="none" stroke="black" d="M404.01,-144.05C400.1,-135.77 395.32,-125.62 390.99,-116.42"/>
<polygon fill="black" stroke="black" points="394.12,-114.86 386.69,-107.31 387.79,-117.84 394.12,-114.86"/>
</g>
<!-- match&#45;&gt;eval -->
<g id="edge14" class="edge">
<title>match&#45;&gt;eval</title>
<path fill="none" stroke="black" d="M479.19,-148.49C459.28,-137.06 429.71,-120.1 407.85,-107.55"/>
<polygon fill="black" stroke="black" points="409.42,-104.42 399,-102.48 405.94,-110.49 409.42,-104.42"/>
</g>
<!-- eval&#45;&gt;main -->
<g id="edge20" class="edge">
<title>eval&#45;&gt;main</title>
<path fill="none" stroke="black" d="M356.82,-79.7C327.99,-67.62 277.43,-46.43 244.33,-32.55"/>
<polygon fill="black" stroke="black" points="245.65,-29.31 235.07,-28.67 242.94,-35.77 245.65,-29.31"/>
</g>
<!-- redir&#45;&gt;match -->
<g id="edge26" class="edge">
<title>redir&#45;&gt;match</title>
<path fill="none" stroke="black" d="M482.81,-216.05C485.55,-208.06 488.89,-198.33 491.95,-189.4"/>
<polygon fill="black" stroke="black" points="495.31,-190.38 495.24,-179.79 488.69,-188.11 495.31,-190.38"/>
</g>
</g>
</svg>
