<?xml version="1.0" encoding="UTF-8" standalone="no"?>
<!DOCTYPE svg PUBLIC "-//W3C//DTD SVG 1.1//EN"
 "http://www.w3.org/Graphics/SVG/1.1/DTD/svg11.dtd">
<!-- Generated by graphviz version 2.47.2 (20210527.0053)
 -->
<!-- Title: G Pages: 1 -->
<svg width="694pt" height="476pt"
 viewBox="0.00 0.00 693.79 476.00" xmlns="http://www.w3.org/2000/svg" xmlns:xlink="http://www.w3.org/1999/xlink">
<g id="graph0" class="graph" transform="scale(1 1) rotate(0) translate(4 472)">
<title>G</title>
<polygon fill="white" stroke="transparent" points="-4,4 -4,-472 689.79,-472 689.79,4 -4,4"/>
<!-- util -->
<g id="node1" class="node">
<title>util</title>
<ellipse fill="none" stroke="black" cx="346" cy="-450" rx="27" ry="18"/>
<text text-anchor="middle" x="346" y="-446.3" font-family="Times,serif" font-size="14.00">util</text>
</g>
<!-- alpha -->
<g id="node3" class="node">
<title>alpha</title>
<ellipse fill="none" stroke="black" cx="518" cy="-378" rx="29.8" ry="18"/>
<text text-anchor="middle" x="518" y="-374.3" font-family="Times,serif" font-size="14.00">alpha</text>
</g>
<!-- util&#45;&gt;alpha -->
<g id="edge1" class="edge">
<title>util&#45;&gt;alpha</title>
<path fill="none" stroke="black" d="M368.49,-439.85C397.99,-427.84 450.03,-406.66 484.27,-392.73"/>
<polygon fill="black" stroke="black" points="485.9,-395.84 493.85,-388.83 483.26,-389.36 485.9,-395.84"/>
</g>
<!-- link_check -->
<g id="node4" class="node">
<title>link_check</title>
<ellipse fill="none" stroke="black" cx="499" cy="-306" rx="49.29" ry="18"/>
<text text-anchor="middle" x="499" y="-302.3" font-family="Times,serif" font-size="14.00">link_check</text>
</g>
<!-- util&#45;&gt;link_check -->
<g id="edge16" class="edge">
<title>util&#45;&gt;link_check</title>
<path fill="none" stroke="black" d="M368.07,-439.28C387.42,-430.04 415.58,-414.78 436,-396 456,-377.61 473.37,-351.87 484.78,-332.8"/>
<polygon fill="black" stroke="black" points="487.88,-334.43 489.89,-324.03 481.83,-330.91 487.88,-334.43"/>
</g>
<!-- breakdown -->
<g id="node5" class="node">
<title>breakdown</title>
<ellipse fill="none" stroke="black" cx="499" cy="-234" rx="50.09" ry="18"/>
<text text-anchor="middle" x="499" y="-230.3" font-family="Times,serif" font-size="14.00">breakdown</text>
</g>
<!-- util&#45;&gt;breakdown -->
<g id="edge3" class="edge">
<title>util&#45;&gt;breakdown</title>
<path fill="none" stroke="black" d="M362.29,-435.53C373.52,-425.55 388.15,-411.12 398,-396 426.2,-352.71 411.63,-330.5 441,-288 448.89,-276.58 459.68,-265.86 469.81,-257.09"/>
<polygon fill="black" stroke="black" points="472.28,-259.59 477.73,-250.5 467.8,-254.21 472.28,-259.59"/>
</g>
<!-- debug_vm -->
<g id="node8" class="node">
<title>debug_vm</title>
<ellipse fill="none" stroke="black" cx="76" cy="-162" rx="48.19" ry="18"/>
<text text-anchor="middle" x="76" y="-158.3" font-family="Times,serif" font-size="14.00">debug_vm</text>
</g>
<!-- util&#45;&gt;debug_vm -->
<g id="edge8" class="edge">
<title>util&#45;&gt;debug_vm</title>
<path fill="none" stroke="black" d="M325.26,-438.27C307.64,-428.58 282.21,-413.24 263,-396 189.69,-330.21 122.23,-233.8 92.29,-188.41"/>
<polygon fill="black" stroke="black" points="95.05,-186.24 86.65,-179.78 89.2,-190.07 95.05,-186.24"/>
</g>
<!-- dump -->
<g id="node9" class="node">
<title>dump</title>
<ellipse fill="none" stroke="black" cx="173" cy="-162" rx="31.4" ry="18"/>
<text text-anchor="middle" x="173" y="-158.3" font-family="Times,serif" font-size="14.00">dump</text>
</g>
<!-- util&#45;&gt;dump -->
<g id="edge10" class="edge">
<title>util&#45;&gt;dump</title>
<path fill="none" stroke="black" d="M330.48,-434.98C319.61,-424.75 305.1,-410.23 294,-396 247.88,-336.85 238.75,-319.48 206,-252 196.09,-231.58 187.29,-207.37 181.28,-189.36"/>
<polygon fill="black" stroke="black" points="184.59,-188.22 178.15,-179.8 177.93,-190.39 184.59,-188.22"/>
</g>
<!-- pushout -->
<g id="node10" class="node">
<title>pushout</title>
<ellipse fill="none" stroke="black" cx="374" cy="-162" rx="38.19" ry="18"/>
<text text-anchor="middle" x="374" y="-158.3" font-family="Times,serif" font-size="14.00">pushout</text>
</g>
<!-- util&#45;&gt;pushout -->
<g id="edge28" class="edge">
<title>util&#45;&gt;pushout</title>
<path fill="none" stroke="black" d="M347.67,-431.97C352.34,-384.19 365.62,-248.62 371.33,-190.27"/>
<polygon fill="black" stroke="black" points="374.81,-190.6 372.31,-180.31 367.85,-189.92 374.81,-190.6"/>
</g>
<!-- match -->
<g id="node11" class="node">
<title>match</title>
<ellipse fill="none" stroke="black" cx="463" cy="-162" rx="32.49" ry="18"/>
<text text-anchor="middle" x="463" y="-158.3" font-family="Times,serif" font-size="14.00">match</text>
</g>
<!-- util&#45;&gt;match -->
<g id="edge25" class="edge">
<title>util&#45;&gt;match</title>
<path fill="none" stroke="black" d="M352.69,-432.24C371.13,-386.12 422.44,-257.95 440,-216 443.71,-207.13 447.87,-197.46 451.62,-188.85"/>
<polygon fill="black" stroke="black" points="454.84,-190.23 455.64,-179.66 448.43,-187.42 454.84,-190.23"/>
</g>
<!-- eval -->
<g id="node12" class="node">
<title>eval</title>
<ellipse fill="none" stroke="black" cx="341" cy="-90" rx="27" ry="18"/>
<text text-anchor="middle" x="341" y="-86.3" font-family="Times,serif" font-size="14.00">eval</text>
</g>
<!-- util&#45;&gt;eval -->
<g id="edge12" class="edge">
<title>util&#45;&gt;eval</title>
<path fill="none" stroke="black" d="M338.49,-432.34C327.42,-406.2 308,-353.7 308,-307 308,-307 308,-307 308,-233 308,-191.75 321.38,-145.47 331.1,-117.28"/>
<polygon fill="black" stroke="black" points="334.43,-118.35 334.48,-107.76 327.83,-116.01 334.43,-118.35"/>
</g>
<!-- main -->
<g id="node13" class="node">
<title>main</title>
<ellipse fill="none" stroke="black" cx="212" cy="-18" rx="28.7" ry="18"/>
<text text-anchor="middle" x="212" y="-14.3" font-family="Times,serif" font-size="14.00">main</text>
</g>
<!-- util&#45;&gt;main -->
<g id="edge19" class="edge">
<title>util&#45;&gt;main</title>
<path fill="none" stroke="black" d="M320.28,-444.23C240.09,-428.66 0,-376.23 0,-307 0,-307 0,-307 0,-161 0,-77.88 113.9,-40.32 174.73,-26.19"/>
<polygon fill="black" stroke="black" points="175.72,-29.55 184.72,-23.96 174.2,-22.72 175.72,-29.55"/>
</g>
<!-- syntax -->
<g id="node2" class="node">
<title>syntax</title>
<ellipse fill="none" stroke="black" cx="572" cy="-450" rx="33.6" ry="18"/>
<text text-anchor="middle" x="572" y="-446.3" font-family="Times,serif" font-size="14.00">syntax</text>
</g>
<!-- syntax&#45;&gt;alpha -->
<g id="edge2" class="edge">
<title>syntax&#45;&gt;alpha</title>
<path fill="none" stroke="black" d="M559.75,-433.12C552.84,-424.17 544.08,-412.81 536.37,-402.81"/>
<polygon fill="black" stroke="black" points="539.08,-400.6 530.2,-394.82 533.54,-404.88 539.08,-400.6"/>
</g>
<!-- debug_syntax -->
<g id="node6" class="node">
<title>debug_syntax</title>
<ellipse fill="none" stroke="black" cx="626" cy="-378" rx="59.59" ry="18"/>
<text text-anchor="middle" x="626" y="-374.3" font-family="Times,serif" font-size="14.00">debug_syntax</text>
</g>
<!-- syntax&#45;&gt;debug_syntax -->
<g id="edge6" class="edge">
<title>syntax&#45;&gt;debug_syntax</title>
<path fill="none" stroke="black" d="M584.25,-433.12C590.9,-424.51 599.26,-413.67 606.75,-403.96"/>
<polygon fill="black" stroke="black" points="609.71,-405.85 613.04,-395.8 604.16,-401.58 609.71,-405.85"/>
</g>
<!-- alpha&#45;&gt;link_check -->
<g id="edge17" class="edge">
<title>alpha&#45;&gt;link_check</title>
<path fill="none" stroke="black" d="M513.4,-360.05C511.29,-352.26 508.72,-342.82 506.35,-334.08"/>
<polygon fill="black" stroke="black" points="509.69,-333.01 503.69,-324.28 502.93,-334.84 509.69,-333.01"/>
</g>
<!-- alpha&#45;&gt;breakdown -->
<g id="edge5" class="edge">
<title>alpha&#45;&gt;breakdown</title>
<path fill="none" stroke="black" d="M532.88,-362.27C541.76,-352.38 552.23,-338.54 557,-324 561.99,-308.8 563.45,-302.64 557,-288 551.53,-275.59 541.56,-264.83 531.41,-256.3"/>
<polygon fill="black" stroke="black" points="533.35,-253.37 523.32,-249.95 529.03,-258.88 533.35,-253.37"/>
</g>
<!-- link_check&#45;&gt;breakdown -->
<g id="edge4" class="edge">
<title>link_check&#45;&gt;breakdown</title>
<path fill="none" stroke="black" d="M499,-287.7C499,-279.98 499,-270.71 499,-262.11"/>
<polygon fill="black" stroke="black" points="502.5,-262.1 499,-252.1 495.5,-262.1 502.5,-262.1"/>
</g>
<!-- breakdown&#45;&gt;pushout -->
<g id="edge29" class="edge">
<title>breakdown&#45;&gt;pushout</title>
<path fill="none" stroke="black" d="M473.1,-218.5C453.79,-207.68 427.28,-192.84 406.54,-181.22"/>
<polygon fill="black" stroke="black" points="408.19,-178.13 397.75,-176.3 404.77,-184.24 408.19,-178.13"/>
</g>
<!-- breakdown&#45;&gt;match -->
<g id="edge26" class="edge">
<title>breakdown&#45;&gt;match</title>
<path fill="none" stroke="black" d="M490.29,-216.05C486.08,-207.89 480.95,-197.91 476.28,-188.82"/>
<polygon fill="black" stroke="black" points="479.32,-187.08 471.63,-179.79 473.1,-190.28 479.32,-187.08"/>
</g>
<!-- breakdown&#45;&gt;eval -->
<g id="edge15" class="edge">
<title>breakdown&#45;&gt;eval</title>
<path fill="none" stroke="black" d="M505.78,-216.14C512.35,-196.79 519.28,-165.04 504,-144 475.47,-104.72 417.09,-93.98 378.51,-91.36"/>
<polygon fill="black" stroke="black" points="378.36,-87.84 368.19,-90.82 377.99,-94.83 378.36,-87.84"/>
</g>
<!-- breakdown&#45;&gt;main -->
<g id="edge23" class="edge">
<title>breakdown&#45;&gt;main</title>
<path fill="none" stroke="black" d="M510.8,-216.44C522.6,-197.65 537.11,-166.7 523,-144 464.4,-49.76 320.51,-26.56 250.93,-20.85"/>
<polygon fill="black" stroke="black" points="251.06,-17.35 240.83,-20.11 250.54,-24.34 251.06,-17.35"/>
</g>
<!-- vm -->
<g id="node7" class="node">
<title>vm</title>
<ellipse fill="none" stroke="black" cx="242" cy="-234" rx="27" ry="18"/>
<text text-anchor="middle" x="242" y="-230.3" font-family="Times,serif" font-size="14.00">vm</text>
</g>
<!-- vm&#45;&gt;debug_vm -->
<g id="edge7" class="edge">
<title>vm&#45;&gt;debug_vm</title>
<path fill="none" stroke="black" d="M219.61,-223.56C193.11,-212.38 148.49,-193.57 116,-179.87"/>
<polygon fill="black" stroke="black" points="117.34,-176.63 106.77,-175.97 114.62,-183.08 117.34,-176.63"/>
</g>
<!-- vm&#45;&gt;dump -->
<g id="edge9" class="edge">
<title>vm&#45;&gt;dump</title>
<path fill="none" stroke="black" d="M227.7,-218.5C218.21,-208.86 205.57,-196.04 194.82,-185.14"/>
<polygon fill="black" stroke="black" points="197.27,-182.63 187.75,-177.97 192.28,-187.55 197.27,-182.63"/>
</g>
<!-- vm&#45;&gt;pushout -->
<g id="edge27" class="edge">
<title>vm&#45;&gt;pushout</title>
<path fill="none" stroke="black" d="M262.62,-222.06C283.46,-211.02 315.98,-193.77 340.51,-180.76"/>
<polygon fill="black" stroke="black" points="342.29,-183.78 349.48,-176 339.01,-177.6 342.29,-183.78"/>
</g>
<!-- vm&#45;&gt;match -->
<g id="edge24" class="edge">
<title>vm&#45;&gt;match</title>
<path fill="none" stroke="black" d="M266.85,-226.46C301.64,-217.12 366.69,-198.98 421,-180 423.4,-179.16 425.87,-178.26 428.35,-177.33"/>
<polygon fill="black" stroke="black" points="429.78,-180.53 437.83,-173.65 427.24,-174 429.78,-180.53"/>
</g>
<!-- vm&#45;&gt;eval -->
<g id="edge11" class="edge">
<title>vm&#45;&gt;eval</title>
<path fill="none" stroke="black" d="M250.3,-216.65C259.88,-198.33 276.57,-168.05 294,-144 301.7,-133.37 311.15,-122.39 319.55,-113.2"/>
<polygon fill="black" stroke="black" points="322.34,-115.34 326.6,-105.64 317.22,-110.57 322.34,-115.34"/>
</g>
<!-- vm&#45;&gt;main -->
<g id="edge18" class="edge">
<title>vm&#45;&gt;main</title>
<path fill="none" stroke="black" d="M239.6,-215.85C234.41,-178.83 222.12,-91.18 215.84,-46.39"/>
<polygon fill="black" stroke="black" points="219.27,-45.65 214.42,-36.23 212.34,-46.62 219.27,-45.65"/>
</g>
<!-- debug_vm&#45;&gt;main -->
<g id="edge22" class="edge">
<title>debug_vm&#45;&gt;main</title>
<path fill="none" stroke="black" d="M91.6,-144.71C115.96,-119.27 163.09,-70.06 190.61,-41.34"/>
<polygon fill="black" stroke="black" points="193.42,-43.46 197.81,-33.82 188.37,-38.62 193.42,-43.46"/>
</g>
<!-- dump&#45;&gt;main -->
<g id="edge21" class="edge">
<title>dump&#45;&gt;main</title>
<path fill="none" stroke="black" d="M177.63,-144.15C184.31,-119.81 196.74,-74.57 204.68,-45.67"/>
<polygon fill="black" stroke="black" points="208.11,-46.39 207.38,-35.82 201.36,-44.54 208.11,-46.39"/>
</g>
<!-- pushout&#45;&gt;eval -->
<g id="edge13" class="edge">
<title>pushout&#45;&gt;eval</title>
<path fill="none" stroke="black" d="M366.01,-144.05C362.1,-135.77 357.32,-125.62 352.99,-116.42"/>
<polygon fill="black" stroke="black" points="356.12,-114.86 348.69,-107.31 349.79,-117.84 356.12,-114.86"/>
</g>
<!-- match&#45;&gt;eval -->
<g id="edge14" class="edge">
<title>match&#45;&gt;eval</title>
<path fill="none" stroke="black" d="M441.19,-148.49C421.28,-137.06 391.71,-120.1 369.85,-107.55"/>
<polygon fill="black" stroke="black" points="371.42,-104.42 361,-102.48 367.94,-110.49 371.42,-104.42"/>
</g>
<!-- eval&#45;&gt;main -->
<g id="edge20" class="edge">
<title>eval&#45;&gt;main</title>
<path fill="none" stroke="black" d="M320.56,-77.91C299.49,-66.47 266.39,-48.52 242.28,-35.43"/>
<polygon fill="black" stroke="black" points="243.66,-32.2 233.2,-30.51 240.32,-38.35 243.66,-32.2"/>
</g>
</g>
</svg>
